<svg width="69" height="68" viewBox="0 0 69 68" fill="none" xmlns="http://www.w3.org/2000/svg">
<g clip-path="url(#clip0_56_187)">
<path d="M67.5312 16C67.5312 7.97266 61.0273 1.46875 53 1.46875C44.9727 1.46875 38.4688 7.97266 38.4688 16C38.4688 23.2527 43.7826 29.2645 50.7295 30.3555V20.2006H47.0381V16H50.7295V12.7984C50.7295 9.15684 52.8975 7.14531 56.218 7.14531C57.8082 7.14531 59.4711 7.42891 59.4711 7.42891V11.0031H57.6383C55.8336 11.0031 55.2705 12.1234 55.2705 13.2725V16H59.3006L58.6561 20.2006H55.2705V30.3555C62.2174 29.2645 67.5312 23.2527 67.5312 16Z" fill="#4E3510" fill-opacity="0.76"/>
</g>
<g clip-path="url(#clip1_56_187)">
<path d="M15.0067 8.26172C10.7478 8.26172 7.31252 11.2676 7.31252 14.9941C7.31252 18.7207 10.7478 21.7266 15.0067 21.7266C19.2656 21.7266 22.7009 18.7207 22.7009 14.9941C22.7009 11.2676 19.2656 8.26172 15.0067 8.26172ZM15.0067 19.3711C12.2545 19.3711 10.0045 17.4082 10.0045 14.9941C10.0045 12.5801 12.2478 10.6172 15.0067 10.6172C17.7656 10.6172 20.0089 12.5801 20.0089 14.9941C20.0089 17.4082 17.7589 19.3711 15.0067 19.3711ZM24.8103 7.98633C24.8103 8.85938 24.0067 9.55664 23.0156 9.55664C22.0179 9.55664 21.221 8.85352 21.221 7.98633C21.221 7.11914 22.0246 6.41602 23.0156 6.41602C24.0067 6.41602 24.8103 7.11914 24.8103 7.98633ZM29.9063 9.58008C29.7924 7.47656 29.2433 5.61328 27.4822 4.07812C25.7277 2.54297 23.5982 2.0625 21.1942 1.95703C18.7165 1.83398 11.2902 1.83398 8.81252 1.95703C6.4152 2.05664 4.28573 2.53711 2.52457 4.07227C0.763411 5.60742 0.221 7.4707 0.100464 9.57422C-0.0401611 11.7422 -0.0401611 18.2402 0.100464 20.4082C0.214303 22.5117 0.763411 24.375 2.52457 25.9102C4.28573 27.4453 6.4085 27.9258 8.81252 28.0312C11.2902 28.1543 18.7165 28.1543 21.1942 28.0312C23.5982 27.9316 25.7277 27.4512 27.4822 25.9102C29.2366 24.375 29.7857 22.5117 29.9063 20.4082C30.0469 18.2402 30.0469 11.748 29.9063 9.58008ZM26.7054 22.7344C26.1831 23.8828 25.1719 24.7676 23.8527 25.2305C21.8773 25.916 17.1898 25.7578 15.0067 25.7578C12.8237 25.7578 8.12948 25.9102 6.16073 25.2305C4.84823 24.7734 3.83707 23.8887 3.30805 22.7344C2.52457 21.0059 2.70537 16.9043 2.70537 14.9941C2.70537 13.084 2.53127 8.97656 3.30805 7.25391C3.83037 6.10547 4.84154 5.2207 6.16073 4.75781C8.13618 4.07227 12.8237 4.23047 15.0067 4.23047C17.1898 4.23047 21.8839 4.07812 23.8527 4.75781C25.1652 5.21484 26.1764 6.09961 26.7054 7.25391C27.4889 8.98242 27.3081 13.084 27.3081 14.9941C27.3081 16.9043 27.4889 21.0117 26.7054 22.7344Z" fill="#4E3510" fill-opacity="0.76"/>
</g>
<path d="M27.8571 35.875H2.13616C0.957589 35.875 0 36.7246 0 37.7676V60.2324C0 61.2754 0.957589 62.125 2.13616 62.125H27.8571C29.0357 62.125 30 61.2754 30 60.2324V37.7676C30 36.7246 29.0357 35.875 27.8571 35.875ZM9.06696 58.375H4.62054V45.8477H9.07366V58.375H9.06696ZM6.84375 44.1367C5.41741 44.1367 4.26562 43.123 4.26562 41.8809C4.26562 40.6387 5.41741 39.625 6.84375 39.625C8.26339 39.625 9.42187 40.6387 9.42187 41.8809C9.42187 43.1289 8.27009 44.1367 6.84375 44.1367ZM25.7344 58.375H21.2879V52.2812C21.2879 50.8281 21.2545 48.959 18.9777 48.959C16.6607 48.959 16.3058 50.541 16.3058 52.1758V58.375H11.8594V45.8477H16.125V47.5586H16.1853C16.7812 46.5742 18.2344 45.5371 20.3973 45.5371C24.8973 45.5371 25.7344 48.1328 25.7344 51.5078V58.375Z" fill="#4E3510" fill-opacity="0.76"/>
<path d="M67.6279 45.2705C67.3007 43.8847 66.3369 42.7934 65.1131 42.423C62.8949 41.75 54 41.75 54 41.75C54 41.75 45.1052 41.75 42.8869 42.423C41.6631 42.7934 40.6993 43.8847 40.3721 45.2705C39.7778 47.7822 39.7778 53.0227 39.7778 53.0227C39.7778 53.0227 39.7778 58.2632 40.3721 60.775C40.6993 62.1607 41.6631 63.2066 42.8869 63.577C45.1052 64.25 54 64.25 54 64.25C54 64.25 62.8948 64.25 65.1131 63.577C66.3369 63.2066 67.3007 62.1607 67.6279 60.775C68.2223 58.2632 68.2223 53.0227 68.2223 53.0227C68.2223 53.0227 68.2223 47.7822 67.6279 45.2705ZM51.0909 57.7807V48.2647L58.5252 53.0229L51.0909 57.7807Z" fill="#4E3510" fill-opacity="0.76"/>
<defs>
<clipPath id="clip0_56_187">
<rect width="30" height="30" fill="white" transform="translate(38 1)"/>
</clipPath>
<clipPath id="clip1_56_187">
<rect width="30" height="30" fill="white"/>
</clipPath>
</defs>
</svg>
